<svg xmlns="http://www.w3.org/2000/svg" viewBox="0 0 784.94 101.49"><defs><clipPath id="clip-path" transform="translate(0.09 -1.59)"><rect width="785.59" height="274.96" style="fill:none"/></clipPath></defs><title>lk_logo-white</title><g id="g10"><g id="g12"><g style="clip-path:url(#clip-path)"><g id="g14"><g id="g20"><path id="path22" d="M187.41,94.13a8.79,8.79,0,0,1-2.09,5.63q-2.1,2.6-6.28,2.6H142.23A8.64,8.64,0,0,1,133.86,94V10.12q0-4.19,2.6-6.28a9,9,0,0,1,11.55,0q2.6,2.1,2.6,6.28V85.76H179q4.19,0,6.28,2.6a9,9,0,0,1,2.09,5.78" transform="translate(0.09 -1.59)" style="fill:#fff"/></g><g id="g24"><path id="path26" d="M215,101.06a9.25,9.25,0,0,1-11.55,0q-2.6-2-2.6-6.21V10.12q0-4.19,2.6-6.28a9,9,0,0,1,11.55,0q2.59,2.1,2.6,6.28V94.85q0,4.19-2.6,6.21" transform="translate(0.09 -1.59)" style="fill:#fff"/></g><g id="g28"><path id="path30" d="M293.86,100.62a8.14,8.14,0,0,1-5.85,2.46h-1.59q-4,0-5.92-2.09a19,19,0,0,1-3.18-5L254.1,42V94.85q0,4.19-2.6,6.21a9.25,9.25,0,0,1-11.55,0q-2.6-2-2.6-6.21V10.12a8,8,0,0,1,2.53-5.85,8,8,0,0,1,5.85-2.53h1.88q4,0,5.92,2.17A20.44,20.44,0,0,1,256.69,9l22.95,52V10q0-4.19,2.6-6.21a9.27,9.27,0,0,1,11.55,0q2.59,2,2.6,6.21V94.85a7.8,7.8,0,0,1-2.53,5.77" transform="translate(0.09 -1.59)" style="fill:#fff"/></g><g id="g32"><path id="path34" d="M374.33,95.14a7.06,7.06,0,0,1-2.67,5.77,9.26,9.26,0,0,1-6,2.17,8.82,8.82,0,0,1-4.11-1,7.76,7.76,0,0,1-3.25-3.61L339.84,60.35,331.9,72V94.85q0,4.19-2.6,6.21a9.25,9.25,0,0,1-11.55,0q-2.6-2-2.6-6.21V10.12q0-4.19,2.6-6.28a9,9,0,0,1,11.55,0q2.6,2.1,2.6,6.28V42.31l25-37A8.27,8.27,0,0,1,360,2.54a8.64,8.64,0,0,1,3.61-.79,8.75,8.75,0,0,1,6,2.38A7.52,7.52,0,0,1,372.31,10a8.77,8.77,0,0,1-1.59,4.76L350.66,44.33l22.81,46.91a9.2,9.2,0,0,1,.87,3.9" transform="translate(0.09 -1.59)" style="fill:#fff"/></g><g id="g132"><path id="path134" d="M443.62,85.54a29.66,29.66,0,0,1-6.21,9.17,28.78,28.78,0,0,1-20.5,8.37h-1.3a28.78,28.78,0,0,1-20.35-8.37,29.54,29.54,0,0,1-6.21-9.17,27.49,27.49,0,0,1-2.31-11.19V10.12q0-4.19,2.6-6.28a9,9,0,0,1,11.55,0q2.6,2.09,2.6,6.27V74.23A11.91,11.91,0,0,0,407,82.88a11.6,11.6,0,0,0,8.59,3.6h1.3a12.31,12.31,0,0,0,12.27-12.25V10.11q0-4.17,2.59-6.27a9,9,0,0,1,11.55,0q2.6,2.1,2.6,6.28V74.35a27.55,27.55,0,0,1-2.31,11.19" transform="translate(0.09 -1.59)" style="fill:#f55564"/></g><g id="g136"><path id="path138" d="M507.85,31.49a12.35,12.35,0,0,0-3.32-8.66,10.9,10.9,0,0,0-8.37-3.61H481.43V45.05h15.16a10.3,10.3,0,0,0,8.08-3.61,12.67,12.67,0,0,0,3.17-8.66V31.49ZM519.9,49a27.71,27.71,0,0,1-12.48,10.39l15.15,31.9a9.21,9.21,0,0,1,1,3.76,7.18,7.18,0,0,1-2.74,5.84,9.34,9.34,0,0,1-6.06,2.24,8.36,8.36,0,0,1-4.11-1.08,7.46,7.46,0,0,1-3.1-3.68L490.09,61.65h-8.66v33.2q0,4.19-2.6,6.21a9.25,9.25,0,0,1-11.54,0q-2.6-2-2.6-6.21V11a8,8,0,0,1,2.53-5.85,8,8,0,0,1,5.85-2.52h22.66a28.64,28.64,0,0,1,28.87,28.87v1.29A28.59,28.59,0,0,1,519.9,49" transform="translate(0.09 -1.59)" style="fill:#f55564"/></g><g id="g140"><path id="path142" d="M554.33,101.06a9.25,9.25,0,0,1-11.55,0q-2.59-2-2.6-6.21V10.12q0-4.19,2.6-6.28a9,9,0,0,1,11.55,0q2.6,2.1,2.6,6.28V94.85q0,4.19-2.6,6.21" transform="translate(0.09 -1.59)" style="fill:#f55564"/></g><g id="g144"><path id="path146" d="M617.4,30a11,11,0,0,0-3.53-8.36,12.11,12.11,0,0,0-8.59-3.31H604a12.11,12.11,0,0,0-8.59,3.31A11,11,0,0,0,591.86,30V74.67a11.19,11.19,0,0,0,3.53,8.43A12,12,0,0,0,604,86.48h1.3a12.13,12.13,0,0,0,8.59-3.31,11,11,0,0,0,3.53-8.36V30Zm14.51,56a28.07,28.07,0,0,1-6.13,9,27.23,27.23,0,0,1-9.17,5.92,30.45,30.45,0,0,1-11.33,2.09H604A29.39,29.39,0,0,1,583.63,95a28.43,28.43,0,0,1-6.21-8.88,27,27,0,0,1-2.31-11.19V30a27,27,0,0,1,2.31-11.19,29.37,29.37,0,0,1,6.21-9,28.2,28.2,0,0,1,9.17-6A29.09,29.09,0,0,1,604,1.75h1.3a29.49,29.49,0,0,1,11.33,2.17,28,28,0,0,1,15.3,14.94A27.68,27.68,0,0,1,634.15,30V74.79A28.19,28.19,0,0,1,631.91,86" transform="translate(0.09 -1.59)" style="fill:#f55564"/></g><g id="g148"><path id="path150" d="M708.2,85.54A29.6,29.6,0,0,1,702,94.71a28.78,28.78,0,0,1-20.5,8.37h-1.3a28.78,28.78,0,0,1-20.35-8.37,29.6,29.6,0,0,1-6.21-9.17,27.55,27.55,0,0,1-2.31-11.19V10.12q0-4.19,2.6-6.28a9,9,0,0,1,11.55,0q2.6,2.09,2.6,6.27V74.23a11.91,11.91,0,0,0,3.54,8.65,11.6,11.6,0,0,0,8.59,3.6h1.3a12.31,12.31,0,0,0,12.27-12.25V10.11q0-4.17,2.6-6.27a9,9,0,0,1,11.54,0q2.6,2.1,2.6,6.28V74.35a27.55,27.55,0,0,1-2.31,11.19" transform="translate(0.09 -1.59)" style="fill:#f55564"/></g><g id="g152"><path id="path154" d="M784.85,75.65a27.49,27.49,0,0,1-2.24,11.26,25.47,25.47,0,0,1-6.21,8.66,27.8,27.8,0,0,1-9.31,5.56,33.89,33.89,0,0,1-11.69,2h-1.3a31.38,31.38,0,0,1-11-2,28.05,28.05,0,0,1-9.31-5.68,26.14,26.14,0,0,1-6.35-9.07,30.37,30.37,0,0,1-2.31-12.15q0-4.18,2.6-6.28a9,9,0,0,1,11.55,0q2.6,2.1,2.6,6.28,0,6.06,3.39,9.17a12.62,12.62,0,0,0,8.88,3.11h1.3a14.62,14.62,0,0,0,9.1-2.74q3.6-2.74,3.61-8.21a11.26,11.26,0,0,0-3.1-7.85,36.14,36.14,0,0,0-7.8-6.27q-4.69-2.88-10.1-5.76A69.3,69.3,0,0,1,737,49.09a35.68,35.68,0,0,1-7.8-8.36,20,20,0,0,1-3.1-11.32v-3a20.63,20.63,0,0,1,2.6-10.44,25.84,25.84,0,0,1,6.73-7.71,30.86,30.86,0,0,1,9-4.83,30.23,30.23,0,0,1,9.69-1.66h1.3a34.17,34.17,0,0,1,10.71,1.66,29.44,29.44,0,0,1,9,4.69,23.19,23.19,0,0,1,6.22,7.29,19.47,19.47,0,0,1,2.32,9.46q0,4.19-2.7,6.13a9.85,9.85,0,0,1-5.89,1.94,9.21,9.21,0,0,1-5.61-1.87,6.7,6.7,0,0,1-2.55-5.78q0-2.89-3.17-4.91a15.42,15.42,0,0,0-8.37-2h-1.3a13.19,13.19,0,0,0-8,2.38,7.7,7.7,0,0,0-3.25,6.57v2.16q0,2.89,3.1,5.34a61.84,61.84,0,0,0,7.79,5.13l10.11,5.78A60,60,0,0,1,773.95,53a37.92,37.92,0,0,1,7.8,9.67,26,26,0,0,1,3.1,13" transform="translate(0.09 -1.59)" style="fill:#f55564"/></g><g id="g156"><path id="path158" d="M68.72,56.24L53.6,71.16q-2.84,2.81-5.32,3A4.29,4.29,0,0,1,44.49,73a4.75,4.75,0,0,1-.94-4,9.85,9.85,0,0,1,3.2-5.38L61.88,48.66q2.84-2.8,5.27-3a4.31,4.31,0,0,1,3.73,1.26,4.78,4.78,0,0,1,1,4q-0.31,2.53-3.15,5.33" transform="translate(0.09 -1.59)" style="fill:#fff"/></g><g id="g160"><path id="path162" d="M42.44,89a10.17,10.17,0,1,0-14.38-.34A10.19,10.19,0,0,0,42.44,89m7,7.36a20.35,20.35,0,1,1,.69-28.77,20.37,20.37,0,0,1-.69,28.77" transform="translate(0.09 -1.59)" style="fill:#fff"/></g><g id="g164"><path id="path166" d="M51.44,25.16l13,3.83a4.61,4.61,0,0,1,3.22,2.6,5.49,5.49,0,0,1-2,6.75,4.61,4.61,0,0,1-4.11.44l-13-3.83a4.49,4.49,0,0,1-3.18-2.58,5.64,5.64,0,0,1,2-6.75,4.49,4.49,0,0,1,4.07-.45" transform="translate(0.09 -1.59)" style="fill:#fff"/></g><g id="g168"><path id="path170" d="M70.18,36A10.17,10.17,0,1,1,77.07,48.6,10.19,10.19,0,0,1,70.18,36m4,22.39A20.35,20.35,0,1,0,60.42,33.11,20.37,20.37,0,0,0,74.21,58.36" transform="translate(0.09 -1.59)" style="fill:#fff"/></g><g id="g172"><path id="path174" d="M22.65,53.46l-3.2-13.19a4.63,4.63,0,0,1,.64-4.09,5.5,5.5,0,0,1,6.84-1.66,4.63,4.63,0,0,1,2.44,3.34l3.2,13.19a4.49,4.49,0,0,1-.65,4,5.64,5.64,0,0,1-6.84,1.66,4.5,4.5,0,0,1-2.43-3.3" transform="translate(0.09 -1.59)" style="fill:#f55564"/></g><g id="g176"><path id="path178" d="M10.37,24.34a10.17,10.17,0,1,0,7.49-12.29,10.19,10.19,0,0,0-7.49,12.29m-9.89,2.4a20.35,20.35,0,1,1,24.57,15,20.37,20.37,0,0,1-24.57-15" transform="translate(0.09 -1.59)" style="fill:#f55564"/></g></g></g></g></g></svg>
